<svg xmlns="http://www.w3.org/2000/svg" viewBox="0 0 292.72 84.77"><defs><style>.cls-1{fill:#fff;}</style></defs><g id="Calque_2" data-name="Calque 2"><g id="Calque_1-2" data-name="Calque 1"><path class="cls-1" d="M129.12,51.55H112l-2.81,6.18h-6.68L117.2,25h6.73l14.68,32.73h-6.74Zm-8.56-19.67-6.07,13.93h12.15Zm39,.46,4.2,3.18-2.57,3.27a9.81,9.81,0,0,1,2.43,6.83c0,2.85-1.07,6.87-4.86,8.6,3.84,1.92,4.77,4.67,4.77,7.62,0,6.36-4.86,10.28-11.55,10.28s-11.68-4.06-11.68-10.28H146c0,3,2.75,5,6,5s5.85-1.77,5.85-5-3-4.63-5.85-4.63c-7.19,0-11.68-4.39-11.68-11.59S145.52,33.93,152,33.93a9.24,9.24,0,0,1,5.29,1.31ZM146,45.62c0,4,2.71,6.4,6,6.4s6-2.43,6-6.4-2.71-6.5-6-6.5-6,2.48-6,6.5m21.31-10.94v23H173V45.57c0-4.25,2.76-5.84,5.75-5.84a5.72,5.72,0,0,1,4.12,1.49l2.57-4.95a8.75,8.75,0,0,0-5.94-2.2c-2.34,0-4.72.42-6.5,3.27l-.42-2.66Zm26.5-6.5c0,4.44-6.73,4.44-6.73,0s6.73-4.44,6.73,0m-6.21,29.54h5.7V34.59h-5.7Zm19.72,0h6.17V30.61h10.38V25H196.9v5.61h10.37Zm18.42-9.49c.38,2.85,2.85,4.9,6.87,4.9,2.11,0,4.87-.79,6.17-2.15l3.65,3.6c-2.43,2.53-6.4,3.74-9.91,3.74-7.95,0-12.67-4.91-12.67-12.29,0-7,4.77-12.06,12.25-12.06,7.71,0,12.53,4.77,11.64,14.26Zm12.53-4.73c-.37-3-2.71-4.48-6-4.48-3.09,0-5.61,1.49-6.45,4.48ZM264,51A6.93,6.93,0,0,1,259,53c-3.55,0-6.54-2.34-6.54-6.73a6.49,6.49,0,0,1,6.64-6.83,7,7,0,0,1,4.63,1.82l3.6-3.78A11,11,0,0,0,259,34c-6.68,0-12.24,4-12.24,12.2s5.56,12.2,12.24,12.2a11.87,11.87,0,0,0,8.89-3.65Zm6.36-26V57.72h5.7V46c0-3.46,2.34-6.32,5.71-6.32,3,0,5.23,1.78,5.23,6v12.1h5.7V45.57c0-6.78-2.89-11.22-9.44-11.22a8.53,8.53,0,0,0-7.2,3.46V25ZM82.74,52.42H77.4V44.34h5.42a2,2,0,0,0,0-3.91H77.4V32.35h5.34a1.95,1.95,0,1,0,0-3.9H77.4v-9a12,12,0,0,0-12-12H56.32V2a2,2,0,0,0-3.9,0V7.42H44.34V2a2,2,0,0,0-3.91,0V7.42H32.35V2a1.95,1.95,0,0,0-3.9,0V7.42h-9a12,12,0,0,0-12,12v9H2a1.95,1.95,0,0,0,0,3.9H7.47v8.08H2a2,2,0,0,0,0,3.91H7.47v8.08H2a1.95,1.95,0,0,0,0,3.9H7.47v9a12,12,0,0,0,12,12h9v5.39a1.95,1.95,0,0,0,3.9,0V77.35h8.08v5.47a2,2,0,0,0,3.91,0V77.35h8.08v5.39a1.95,1.95,0,0,0,3.9,0V77.35h9.06a12,12,0,0,0,12-12v-9h5.34a1.95,1.95,0,1,0,0-3.9M57,36.91V42.3a6.32,6.32,0,0,1-4.1,5.92l-9.68,3.64V42.09ZM55,25.69v5.68a5.91,5.91,0,0,1-3.82,5.53l-8,3V30.14ZM41.54,63.81,30.1,59.53a7.28,7.28,0,0,1-4.74-6.83V48l16.18,6Zm0-12-9.68-3.64a6.32,6.32,0,0,1-4.1-5.92V36.91l13.78,5.18Zm0-12-8-3a5.91,5.91,0,0,1-3.82-5.53V25.69l11.81,4.45Zm-5.27-14L36,25.81l2.14-3.21,4.24-6.33,4.19,6.27,2.13,3.19-.32.12-6,2.37ZM59.41,52.7a7.28,7.28,0,0,1-4.74,6.83L43.23,63.81V54l16.18-6Z"/></g></g></svg>